<svg width="789" height="789" viewBox="0 0 789 789" fill="none" xmlns="http://www.w3.org/2000/svg">
<path d="M579.376 311.079C569.385 288.638 555.201 267.609 536.793 249.201C519.517 231.925 499.93 218.37 479.036 208.508C481.854 190.4 490.23 172.99 504.181 159.039C513.008 150.212 523.221 143.618 534.118 139.249C557.07 152.108 578.661 168.294 598.181 187.814C619.296 208.929 636.509 232.468 649.831 257.53C645.47 267.745 639.128 277.316 630.794 285.65C616.343 300.1 598.181 308.574 579.376 311.079ZM114.002 490.696C78.6313 388.078 101.897 269.729 183.813 187.814C270.342 101.286 397.525 80.1958 503.878 124.535C497.197 128.889 490.861 133.992 484.997 139.856C468.338 156.515 457.779 176.96 453.303 198.421C382.28 175.976 301.51 192.893 245.201 249.201C179.829 314.572 167.529 412.917 208.302 490.696H114.002ZM300.729 580.424C377.611 617.855 472.934 604.649 536.793 540.79C591.959 485.625 609.327 406.979 588.904 337.026C611.278 332.868 632.67 322.14 649.977 304.833C655.214 299.597 659.845 293.984 663.878 288.085C704.996 393.195 683.097 517.263 598.181 602.177C517.708 682.65 402.069 706.533 300.729 673.816V580.424ZM183.813 602.177C162.889 581.254 145.794 557.952 132.522 533.143V512.394H221.457C228.389 522.379 236.302 531.891 245.201 540.79C255.697 551.287 267.051 560.404 279.027 568.164L279.023 658.892L263.515 658.896C234.71 644.981 207.711 626.075 183.813 602.177Z" fill="white"/>
<path d="M132.525 658.892L132.522 512.394L279.026 512.392L279.023 658.892L132.525 658.892Z" fill="#D9D9D9"/>
<path d="M132.525 658.892L132.522 512.394L279.026 512.392L279.023 658.892L132.525 658.892Z" fill="#F6A7B5"/>
<path d="M331.528 331.69C366.491 296.728 423.177 296.728 458.14 331.69C493.103 366.653 493.103 423.339 458.14 458.301C423.177 493.264 366.491 493.264 331.528 458.301C296.564 423.339 296.564 366.653 331.528 331.69Z" fill="#C9C3E6"/>
<path d="M504.181 159.039C539.144 124.076 595.831 124.076 630.794 159.039C665.757 194.002 665.757 250.687 630.794 285.65C595.831 320.613 539.144 320.613 504.181 285.65C469.218 250.687 469.218 194.002 504.181 159.039Z" fill="#CFE8D6"/>
</svg>
